<?xml version="1.0" standalone="no"?>
<svg xmlns="http://www.w3.org/2000/svg" viewBox="0 0 133.897 36" width="133.897" height="36"><g fill="#7fe00c" color="#7fe00c" transform="translate(105.897, 9.384615384615385) scale(0.5384616)"><svg width="52.0" height="32.0" x="0.0" y="0.0" viewBox="0 0 52 32"><path fill="currentColor" fill-rule="evenodd" d="M12.406 14.36c-.916 1.87-1.835 3.742-2.744 5.592 2.102-.706 3.191-2.93 2.744-5.591zm-.22-2.485c-2.53 1.567-3.251 4.145-4.021 6.677a1.558 1.558 0 0 0 .363 1.7c.12-.076.23-.172.32-.282.6-1.125 1.216-2.24 1.765-3.388.365-.744.662-1.52.889-2.317.132-.487.181-.92.953-.854l-.268-1.536zm21.018-4.367c2.249-.527 3.934-2.646 3.656-6.135-.356.224-.727.434-1.073.68-1.494 1.064-2.99 2.145-3.8 3.863a2.577 2.577 0 0 0-.135 2.312c.906-1.12 1.754-2.11 2.528-3.152.35-.473.536-1.068.847-1.577a1.37 1.37 0 0 1 .532-.3c.092.157.142.337.144.52-.209.49-.467.954-.773 1.388-.612.822-1.28 1.603-1.926 2.401zm-7.781 10.27c1.817.317 3.491.603 5.162.905.185.058.365.14.53.24a.985.985 0 0 1-.227.392.912.912 0 0 1-.6.144c-.646-.165-1.266-.468-1.919-.577-1.143-.189-2.303-.273-3.456-.402 1.24 1.606 2.755 2.429 4.734 2.154 1.27-.177 2.54-.33 3.805-.522a5.998 5.998 0 0 0 1.008-.367c-2.918-1.562-5.508-3.577-9.037-1.966zM39.624 9.55c.13.03.262.046.396.047 1.8-.221 3.6-.46 5.403-.665.202.033.393.112.56.228a3.632 3.632 0 0 1-.373.442.614.614 0 0 1-.33.104c-1.085.112-2.17.216-3.255.327-.284.03-.568.08-.948.134 2.462 1.653 8.361.074 9.421-2.417-4.307-1.743-9.011-.984-10.874 1.8zM6.671 25.632c.753-.142 1.308-.274 1.87-.348 1.088-.139 2.186-.207 3.267-.381a3.303 3.303 0 0 0 1.24-.535c2.97-1.977 5.34-2.663 8.755-1.138 1.226.547 2.486 1.017 3.725 1.535.28.14.55.298.811.47a1.807 1.807 0 0 1-.658.5c-1.17-.12-2.075.597-3.102.912-1.829.56-3.668 1.193-5.605.692a12.039 12.039 0 0 1-2.88-1.16 3.975 3.975 0 0 0-2.673-.522c-1.629.262-3.252.57-4.866.905-1.557.323-2.653 1.395-3.694 2.484-.831.869-1.549 1.846-2.327 2.765a.537.537 0 0 1-.34.132.727.727 0 0 1-.194-.471 3.15 3.15 0 0 1 .547-.876 21.038 21.038 0 0 0 1.77-1.875c1.615-2.313 3.421-4.479 5.09-6.749.481-.514.566-1.284.209-1.889-.32-.63-.122-1.657.13-2.411.62-1.867 1.387-3.686 2.828-5.122.566-.565 1.06-1.201 1.603-1.79.27-.29.57-.289.668.133.14.565.224 1.141.254 1.723.106 1.408.12 2.821.047 4.232a4.264 4.264 0 0 1-1.876 3.057c-.787.568-1.694.968-2.469 1.548-.515.426-.97.918-1.354 1.463a16.898 16.898 0 0 0-1.578 2.428c1.304-.915 2.59-1.854 3.915-2.74 1.37-.916 2.821-1.715 4.15-2.684a36.315 36.315 0 0 0 3.775-3.147 15.386 15.386 0 0 0 1.778-2.411.738.738 0 0 0 .052-.5c-.293-1.648-.436-3.29.354-4.846a4.878 4.878 0 0 1 2.063-2.177 10.043 10.043 0 0 0 3.047-2.609.825.825 0 0 1 .49-.308.83.83 0 0 1 .39.56c-.182 1.379-.361 2.764-.653 4.122-.512 2.391-2.053 3.957-4.186 5.038a3.287 3.287 0 0 0-1.127 1c-.604.843-1.119 1.75-1.777 2.8.784-.39 1.432-.735 2.1-1.041 1.935-.888 3.868-1.782 5.82-2.63 2.161-.94 3.672-2.61 5.065-4.416a.698.698 0 0 0 .083-.584c-.567-1.358.006-2.539.538-3.728.61-1.363 1.954-1.978 2.983-2.914.782-.71 1.61-1.373 2.434-2.036a.455.455 0 0 1 .731.364 25.45 25.45 0 0 1-.423 3.307 5.98 5.98 0 0 1-4.4 4.662 1.39 1.39 0 0 0-.666.325 33.834 33.834 0 0 0-2.51 3.313c.652-.188 1.298-.396 1.954-.56 2.071-.52 4.149-1.012 6.214-1.547.299-.094.56-.275.752-.521 2.022-2.54 4.575-3.869 7.874-3.39 1.626.238 3.234.601 4.846.933.201.052.372.189.465.375a.684.684 0 0 1-.271.462c-1.653 1.463-3.285 2.952-5.504 3.54a7.9 7.9 0 0 1-5.58-.454c-1.262-.608-2.481-.356-3.677-.063-2.566.628-5.099 1.389-7.646 2.098a2.267 2.267 0 0 0-.328.194c.891.132 1.629.238 2.365.351.44.04.874.115 1.301.225 1.348.448 2.683.258 4.044.064 2.953-.497 5.98.275 8.337 2.124.57.44 1.123.907 1.656 1.393a.738.738 0 0 1 .268.563.712.712 0 0 1-.524.34c-1.49.187-2.982.35-4.474.507a6.919 6.919 0 0 1-4.175-1.082 19.67 19.67 0 0 1-2.986-1.897 6.508 6.508 0 0 0-3.982-1.547 31.618 31.618 0 0 0-3.67-.188 6.503 6.503 0 0 0-2.202.8c-1.884.895-3.747 1.834-5.618 2.755-.093.046-.185.096-.348.182 1.576.04 3.061.16 4.535.077a5.344 5.344 0 0 0 1.902-.759c2.601-1.302 4.958-.433 7.282.778.965.503 1.93 1.004 2.883 1.531.2.15.38.324.535.52-.173.23-.395.417-.652.545-2.131.328-4.261.715-6.407.862a5.158 5.158 0 0 1-4.306-1.693 3.271 3.271 0 0 0-2.724-1.213c-1.362.12-2.774.047-4.074.395a15.13 15.13 0 0 0-3.81 1.734c-2.08 1.254-4.077 2.645-6.096 3.999-.435.291-.814.664-1.383 1.135z"></path></svg></g><path fill="#169912" fill-rule="nonzero" d="M2.66 19.37Q1.32 19.37 0.66 18.91Q0 18.46 0 17.45L0 17.45Q0 17.38 0.12 17.38L0.12 17.38Q0.22 17.38 0.70 17.50Q1.18 17.62 2.38 17.62L2.38 17.62Q5.04 17.62 7.24 16.81Q9.43 16.01 10.68 14.69Q11.93 13.37 11.93 11.93L11.93 11.93Q11.93 10.18 10.20 9.54Q8.47 8.90 5.88 8.90L5.88 8.90L4.08 8.93Q3.72 10.15 3.05 12.60L3.05 12.60Q2.54 14.47 1.92 16.66L1.92 16.66Q1.32 16.66 0.91 16.32Q0.50 15.98 0.50 15.50L0.50 15.50Q0.50 15.19 0.65 14.74Q0.79 14.28 0.84 14.14L0.84 14.14Q1.58 11.64 3.08 7.48Q4.58 3.31 5.93 0.67L5.93 0.67Q4.51 0.91 3.14 1.73L3.14 1.73Q2.71 1.97 2.62 1.97L2.62 1.97Q2.42 1.97 2.14 1.73Q1.85 1.49 1.85 1.32L1.85 1.32Q3.43 0.67 4.64 0.34Q5.86 0 7.54 0L7.54 0Q9.74 0 11.41 0.80Q13.08 1.61 13.08 3.82L13.08 3.82Q13.08 5.95 11.48 7.03Q9.89 8.11 7.58 8.50L7.58 8.50Q13.06 8.83 13.06 12.36L13.06 12.36Q13.06 14.52 11.30 16.12Q9.55 17.71 7.09 18.54Q4.63 19.37 2.66 19.37L2.66 19.37ZM4.22 8.38Q7.32 8.28 9.48 7.15Q11.64 6.02 11.64 3.62L11.64 3.62Q11.64 0.50 7.58 0.50L7.58 0.50Q7.27 0.50 7.13 0.53L7.13 0.53Q5.71 3.29 4.22 8.38L4.22 8.38ZM15.29 18.41Q14.50 18.41 14.00 17.89Q13.51 17.38 13.51 16.42L13.51 16.42Q13.51 15 14.53 13.25Q15.55 11.50 17.11 10.27Q18.67 9.05 20.16 9.05L20.16 9.05Q21.10 9.05 21.72 9.55Q22.34 10.06 22.34 10.85L22.34 10.85Q22.34 11.40 22.03 11.64Q21.72 11.88 21.17 11.88L21.17 11.88Q21.29 11.45 21.29 11.04L21.29 11.04Q21.29 10.44 21 10.07Q20.71 9.70 20.11 9.70L20.11 9.70Q19.06 9.70 17.89 10.87Q16.73 12.05 15.95 13.68Q15.17 15.31 15.17 16.49L15.17 16.49Q15.17 17.42 15.82 17.42L15.82 17.42Q16.78 17.42 18.07 15.90Q19.37 14.38 20.86 12.19L20.86 12.19Q21.17 12.24 21.49 12.40Q21.82 12.55 21.82 12.79L21.82 12.79Q21.82 12.98 21.59 13.40Q21.36 13.82 21.31 13.90L21.31 13.90Q20.90 14.59 20.66 15.13Q20.42 15.67 20.42 16.13L20.42 16.13Q20.42 16.54 20.63 16.86Q20.83 17.18 21.24 17.18L21.24 17.18Q21.94 17.18 22.99 16.19Q24.05 15.19 25.08 13.39L25.08 13.39L25.32 13.63Q24.82 14.90 24.02 15.90Q23.23 16.90 22.32 17.45Q21.41 18 20.57 18L20.57 18Q19.73 18 19.28 17.51Q18.84 17.02 18.84 16.32L18.84 16.32Q18.84 16.01 18.91 15.62L18.91 15.62Q17.83 17.06 16.98 17.74Q16.13 18.41 15.29 18.41L15.29 18.41ZM32.35 17.76Q31.54 17.76 31.10 17.34Q30.67 16.92 30.67 16.22L30.67 16.22Q30.67 15.91 30.78 15.49Q30.89 15.07 31.01 14.66L31.01 14.66Q31.15 14.23 31.26 13.75Q31.37 13.27 31.37 12.89L31.37 12.89Q31.37 11.71 30.41 11.71L30.41 11.71Q29.50 11.71 28.50 12.67Q27.50 13.63 26.72 14.81Q25.94 15.98 24.96 17.64L24.96 17.64Q24.55 17.64 24.22 17.51Q23.88 17.38 23.69 17.11L23.69 17.11Q23.69 16.99 24 16.25L24 16.25Q24.60 14.71 24.98 13.45Q25.37 12.19 25.39 11.21L25.39 11.21Q25.56 11.02 25.87 10.86Q26.18 10.70 26.50 10.70L26.50 10.70Q27.14 10.70 27.14 11.33L27.14 11.33Q27.14 11.69 26.93 12.59Q26.71 13.49 26.38 14.50L26.38 14.50Q27.53 12.72 28.82 11.50Q30.12 10.27 31.37 10.27L31.37 10.27Q32.26 10.27 32.70 10.91Q33.14 11.54 33.14 12.43L33.14 12.43Q33.14 12.96 33.01 13.44Q32.88 13.92 32.62 14.54L32.62 14.54Q32.40 15.07 32.28 15.46Q32.16 15.84 32.16 16.22L32.16 16.22Q32.16 17.14 32.88 17.14L32.88 17.14Q33.70 17.14 34.57 16.06Q35.45 14.98 36.24 13.39L36.24 13.39L36.50 13.70Q34.78 17.76 32.35 17.76L32.35 17.76ZM38.35 18.62Q37.15 18.62 36.41 17.83Q35.66 17.04 35.66 15.55L35.66 15.55Q35.66 13.99 36.46 12.50Q37.25 11.02 38.48 10.09Q39.72 9.17 40.92 9.17L40.92 9.17Q41.83 9.17 42.23 9.68Q42.62 10.20 42.62 10.94L42.62 10.94Q42.62 11.66 42.30 12.18Q41.98 12.70 41.42 12.70L41.42 12.70Q41.02 12.70 40.73 12.34L40.73 12.34Q41.09 12.17 41.35 11.58Q41.62 10.99 41.62 10.44L41.62 10.44Q41.62 10.13 41.50 9.98Q41.38 9.84 41.09 9.84L41.09 9.84Q40.27 9.84 39.35 10.81Q38.42 11.78 37.79 13.18Q37.15 14.57 37.15 15.72L37.15 15.72Q37.15 16.58 37.56 17.15Q37.97 17.71 38.90 17.71L38.90 17.71Q40.37 17.71 41.80 16.51Q43.22 15.31 43.99 13.37L43.99 13.37L44.30 13.61Q43.75 15.05 42.79 16.19Q41.83 17.33 40.67 17.98Q39.50 18.62 38.35 18.62L38.35 18.62ZM45.19 18.05Q44.21 18.05 43.75 17.45Q43.30 16.85 43.30 15.86L43.30 15.86Q43.30 14.88 43.70 13.80Q44.11 12.72 44.76 12Q45.41 11.28 46.06 11.28L46.06 11.28Q46.27 11.28 46.56 11.40L46.56 11.40Q46.27 11.64 45.86 12.46Q45.46 13.27 45.16 14.20Q44.86 15.12 44.86 15.70L44.86 15.70Q44.86 17.06 45.72 17.06L45.72 17.06Q46.22 17.06 46.92 16.54Q47.62 16.01 48.29 15.14L48.29 15.14Q47.62 14.59 47.24 13.70Q46.87 12.82 46.87 11.86L46.87 11.86Q46.87 10.61 47.51 9.72Q48.14 8.83 49.22 8.83L49.22 8.83Q50.14 8.83 50.51 9.32Q50.88 9.82 50.88 10.68L50.88 10.68Q50.88 11.59 50.44 12.73Q49.99 13.87 49.27 14.95L49.27 14.95Q49.70 15.19 50.18 15.19L50.18 15.19Q50.88 15.19 51.62 14.77Q52.37 14.35 52.75 13.46L52.75 13.46L53.04 13.70Q52.58 14.76 51.74 15.26Q50.90 15.77 50.02 15.77L50.02 15.77Q49.37 15.77 48.86 15.53L48.86 15.53Q48.00 16.66 47.03 17.35Q46.06 18.05 45.19 18.05L45.19 18.05ZM48.72 14.52Q49.34 13.58 49.73 12.61Q50.11 11.64 50.11 10.82L50.11 10.82Q50.11 10.15 49.91 9.82Q49.70 9.48 49.39 9.48L49.39 9.48Q49.06 9.48 48.71 9.80Q48.36 10.13 48.13 10.69Q47.90 11.26 47.90 11.93L47.90 11.93Q47.90 12.67 48.11 13.36Q48.31 14.04 48.72 14.52L48.72 14.52ZM59.86 19.37Q60.17 17.62 60.72 15.55Q61.27 13.49 62.50 9.74L62.50 9.74L60.91 9.91Q60.94 8.86 62.90 8.45L62.90 8.45Q63.79 5.74 64.94 2.42L64.94 2.42Q64.97 2.35 65.12 1.90Q65.28 1.44 65.28 1.01L65.28 1.01Q65.28 0.82 65.22 0.74Q65.16 0.67 64.94 0.67L64.94 0.67Q64.20 0.67 63.52 1.44Q62.83 2.21 62.40 3.29Q61.97 4.37 61.97 5.18L61.97 5.18Q61.97 5.64 62.09 6.00L62.09 6.00Q61.34 6.00 61.00 5.63Q60.65 5.26 60.65 4.63L60.65 4.63Q60.65 3.60 61.45 2.51Q62.26 1.42 63.41 0.71Q64.56 0 65.45 0L65.45 0Q66.05 0 66.30 0.32Q66.55 0.65 66.55 1.15L66.55 1.15Q66.55 1.56 66.36 2.18L66.36 2.18L64.49 8.28Q65.35 8.23 65.88 8.23L65.88 8.23Q67.75 8.23 69.96 8.45L69.96 8.45Q70.70 5.98 71.39 3.94Q72.07 1.90 72.38 1.25L72.38 1.25Q72.96 0 73.70 0L73.70 0Q73.22 1.27 72.54 3.62Q71.86 5.98 71.18 8.54L71.18 8.54Q71.42 8.54 71.95 8.59L71.95 8.59Q72.67 8.64 72.98 8.64L72.98 8.64Q72.50 9.14 72.05 9.28Q71.59 9.41 70.97 9.41L70.97 9.41Q70.46 11.47 70.22 12.70L70.22 12.70Q69.43 16.46 69.43 18.50L69.43 18.50Q69.43 18.94 69.48 19.37L69.48 19.37Q68.57 19.27 68.20 18.85Q67.82 18.43 67.82 17.50L67.82 17.50Q67.82 16.10 68.40 13.87L68.40 13.87Q68.78 12.29 69.67 9.43L69.67 9.43Q67.75 9.43 66.42 9.47Q65.09 9.50 64.08 9.60L64.08 9.60Q62.02 16.10 61.51 17.83L61.51 17.83Q61.27 18.60 60.79 18.98Q60.31 19.37 59.86 19.37L59.86 19.37ZM74.38 18.05Q73.39 18.05 72.94 17.45Q72.48 16.85 72.48 15.86L72.48 15.86Q72.48 14.88 72.89 13.80Q73.30 12.72 73.94 12Q74.59 11.28 75.24 11.28L75.24 11.28Q75.46 11.28 75.74 11.40L75.74 11.40Q75.46 11.64 75.05 12.46Q74.64 13.27 74.34 14.20Q74.04 15.12 74.04 15.70L74.04 15.70Q74.04 17.06 74.90 17.06L74.90 17.06Q75.41 17.06 76.10 16.54Q76.80 16.01 77.47 15.14L77.47 15.14Q76.80 14.59 76.43 13.70Q76.06 12.82 76.06 11.86L76.06 11.86Q76.06 10.61 76.69 9.72Q77.33 8.83 78.41 8.83L78.41 8.83Q79.32 8.83 79.69 9.32Q80.06 9.82 80.06 10.68L80.06 10.68Q80.06 11.59 79.62 12.73Q79.18 13.87 78.46 14.95L78.46 14.95Q78.89 15.19 79.37 15.19L79.37 15.19Q80.06 15.19 80.81 14.77Q81.55 14.35 81.94 13.46L81.94 13.46L82.22 13.70Q81.77 14.76 80.93 15.26Q80.09 15.77 79.20 15.77L79.20 15.77Q78.55 15.77 78.05 15.53L78.05 15.53Q77.18 16.66 76.21 17.35Q75.24 18.05 74.38 18.05L74.38 18.05ZM77.90 14.52Q78.53 13.58 78.91 12.61Q79.30 11.64 79.30 10.82L79.30 10.82Q79.30 10.15 79.09 9.82Q78.89 9.48 78.58 9.48L78.58 9.48Q78.24 9.48 77.89 9.80Q77.54 10.13 77.32 10.69Q77.09 11.26 77.09 11.93L77.09 11.93Q77.09 12.67 77.29 13.36Q77.50 14.04 77.90 14.52L77.90 14.52ZM84.72 6.79Q84.31 6.79 84.04 6.59Q83.76 6.38 83.76 6.02L83.76 6.02Q83.76 5.52 84.32 5.14Q84.89 4.75 85.51 4.75L85.51 4.75Q85.87 4.75 86.09 4.92Q86.30 5.09 86.30 5.42L86.30 5.42Q86.30 5.95 85.81 6.37Q85.32 6.79 84.72 6.79L84.72 6.79ZM78.12 24Q77.52 24 77.20 23.66Q76.87 23.33 76.87 22.78L76.87 22.78Q76.87 21.89 77.72 20.83Q78.58 19.78 79.90 19.03L79.90 19.03Q80.26 18.82 80.83 18.55L80.83 18.55Q81.19 18.41 81.43 18.26L81.43 18.26Q82.46 15.70 83.04 12.36L83.04 12.36Q82.90 12.62 82.25 13.70L82.25 13.70Q82.01 14.06 81.91 14.26L81.91 14.26L81.70 13.90Q82.13 13.08 82.73 11.52L82.73 11.52Q83.26 10.18 83.59 9.56Q83.93 8.95 84.34 8.95L84.34 8.95Q84.60 8.95 84.76 9.16Q84.91 9.36 84.91 9.67L84.91 9.67Q84.91 10.32 84.35 12.72Q83.78 15.12 82.99 17.47L82.99 17.47L83.42 17.21Q84.70 16.49 85.52 15.76Q86.35 15.02 87.17 13.51L87.17 13.51L87.48 13.68Q86.78 15.29 85.81 16.14Q84.84 16.99 83.42 17.76L83.42 17.76L82.75 18.14Q81.82 20.69 80.64 22.34Q79.46 24 78.12 24L78.12 24ZM77.90 23.18Q78.43 23.18 79.34 22.08Q80.26 20.98 81.12 19.03L81.12 19.03Q79.37 19.90 78.43 20.86Q77.50 21.82 77.50 22.61L77.50 22.61Q77.50 23.18 77.90 23.18L77.90 23.18ZM87.86 18.41Q87.07 18.41 86.58 17.89Q86.09 17.38 86.09 16.42L86.09 16.42Q86.09 15 87.11 13.25Q88.13 11.50 89.69 10.27Q91.25 9.05 92.74 9.05L92.74 9.05Q93.67 9.05 94.30 9.55Q94.92 10.06 94.92 10.85L94.92 10.85Q94.92 11.40 94.61 11.64Q94.30 11.88 93.74 11.88L93.74 11.88Q93.86 11.45 93.86 11.04L93.86 11.04Q93.86 10.44 93.58 10.07Q93.29 9.70 92.69 9.70L92.69 9.70Q91.63 9.70 90.47 10.87Q89.30 12.05 88.52 13.68Q87.74 15.31 87.74 16.49L87.74 16.49Q87.74 17.42 88.39 17.42L88.39 17.42Q89.35 17.42 90.65 15.90Q91.94 14.38 93.43 12.19L93.43 12.19Q93.74 12.24 94.07 12.40Q94.39 12.55 94.39 12.79L94.39 12.79Q94.39 12.98 94.16 13.40Q93.94 13.82 93.89 13.90L93.89 13.90Q93.48 14.59 93.24 15.13Q93.00 15.67 93.00 16.13L93.00 16.13Q93.00 16.54 93.20 16.86Q93.41 17.18 93.82 17.18L93.82 17.18Q94.51 17.18 95.57 16.19Q96.62 15.19 97.66 13.39L97.66 13.39L97.90 13.63Q97.39 14.90 96.60 15.90Q95.81 16.90 94.90 17.45Q93.98 18 93.14 18L93.14 18Q92.30 18 91.86 17.51Q91.42 17.02 91.42 16.32L91.42 16.32Q91.42 16.01 91.49 15.62L91.49 15.62Q90.41 17.06 89.56 17.74Q88.70 18.41 87.86 18.41L87.86 18.41Z" transform="translate(0, 6)"></path></svg>